<svg xmlns="http://www.w3.org/2000/svg" version="1.1" xmlns:xlink="http://www.w3.org/1999/xlink" xmlns:svgjs="http://svgjs.dev/svgjs" width="2000" height="1247" viewBox="0 0 2000 1247"><g transform="matrix(1,0,0,1,-1.2121212121212466,0.504858299595071)"><svg viewBox="0 0 396 247" data-background-color="#ffffff" preserveAspectRatio="xMidYMid meet" height="1247" width="2000" xmlns="http://www.w3.org/2000/svg" xmlns:xlink="http://www.w3.org/1999/xlink"><g id="tight-bounds" transform="matrix(1,0,0,1,0.2400000000000091,-0.09999999999999432)"><svg viewBox="0 0 395.52 247.2" height="247.2" width="395.52"><g><svg></svg></g><g><svg viewBox="0 0 395.52 247.2" height="247.2" width="395.52"><g transform="matrix(1,0,0,1,75.54432000000001,97.26824130757801)"><svg viewBox="0 0 244.43135999999996 52.66351738484398" height="52.66351738484398" width="244.43135999999996"><g><svg viewBox="0 0 244.43135999999996 52.66351738484398" height="52.66351738484398" width="244.43135999999996"><g><svg viewBox="0 0 244.43135999999996 52.66351738484398" height="52.66351738484398" width="244.43135999999996"><g><svg viewBox="0 0 244.43135999999996 52.66351738484398" height="52.66351738484398" width="244.43135999999996"><g><svg viewBox="0 0 244.43135999999996 52.66351738484398" height="52.66351738484398" width="244.43135999999996"><g><svg viewBox="0 0 244.43135999999996 52.66351738484398" height="52.66351738484398" width="244.43135999999996"><g transform="matrix(1,0,0,1,0,0)"><svg width="244.43135999999996" viewBox="1.2699999809265137 -33.08000183105469 197.14999389648438 42.480003356933594" height="52.66351738484398" data-palette-color="#0b64ba"><path d="M18.75-33.08L18.75-33.08Q23.32-33.08 26.54-31.49L26.54-31.49 26.54-24.02 26.49-23.97Q25.12-26.07 20.73-26.76L20.73-26.76Q19.43-26.98 17.46-26.98 15.48-26.98 13.57-26.23 11.67-25.49 10.45-24.12L10.45-24.12Q8.08-21.46 8.08-16.53L8.08-16.53Q8.08-10.79 11.08-7.98L11.08-7.98Q13.57-5.64 17.68-5.64L17.68-5.64Q22.31-5.64 25.2-7.62L25.2-7.62Q26.25-8.33 26.98-9.38L26.98-9.38 27.05-9.33 27.05-2.49Q23.32 0.61 16.99 0.61L16.99 0.61Q9.55 0.61 5.32-4.13L5.32-4.13Q1.27-8.64 1.27-16.09L1.27-16.09Q1.27-23.97 5.71-28.52L5.71-28.52Q10.21-33.08 18.75-33.08ZM30.73-12.62L30.73-12.62Q30.73-15.31 31.65-17.76 32.57-20.21 34.27-22.05L34.27-22.05Q38.01-26 43.97-26L43.97-26Q49.9-26 53.39-22.27L53.39-22.27Q56.74-18.7 56.74-13.01L56.74-13.01Q56.74-7.32 53.29-3.59L53.29-3.59Q49.66 0.37 43.65 0.37L43.65 0.37Q37.45 0.37 33.93-3.52L33.93-3.52Q30.73-7.06 30.73-12.62ZM36.67-12.77L36.67-12.77Q36.67-11.23 37.18-9.79 37.69-8.35 38.64-7.32L38.64-7.32Q40.67-5.1 43.97-5.1L43.97-5.1Q47.02-5.1 48.78-7.28L48.78-7.28Q50.49-9.38 50.49-12.74L50.49-12.74Q50.49-16.16 48.73-18.26L48.73-18.26Q46.85-20.51 43.58-20.51L43.58-20.51Q40.26-20.51 38.38-18.12L38.38-18.12Q36.67-15.92 36.67-12.77ZM77.09 0L77.09-2.22Q73.97 0.37 70.28 0.37L70.28 0.37Q66.33 0.37 64.08-2.29L64.08-2.29Q61.93-4.88 61.93-9.4L61.93-9.4 61.93-19.09Q61.93-23.97 61.73-24.69 61.52-25.42 61.42-25.61L61.42-25.61Q62.54-25.51 63.76-25.51L63.76-25.51 65.79-25.51Q66.6-25.51 67.91-25.59L67.91-25.59 67.91-11.45Q67.91-6.42 70.65-5.62L70.65-5.62Q71.48-5.37 72.46-5.37L72.46-5.37Q75.34-5.37 77.09-7.47L77.09-7.47 77.09-25.51 83.15-25.51 83.15-3.13Q83.15-0.98 83.34 0L83.34 0 77.09 0ZM97.36-17.07L97.36-3.13Q97.36-0.98 97.55 0L97.55 0 91.42 0 91.42-25.51 97.36-25.51 97.36-23.34Q100.58-26 104.24-26L104.24-26Q108.24-26 110.64-23.28 113.03-20.56 113.03-16.11L113.03-16.11 113.03-6.4Q113.03-2.27 113.15-1.44 113.27-0.61 113.48-0.37 113.69-0.12 113.84 0.07L113.84 0.07 113.79 0.17Q111.81 0 110.91 0L110.91 0 109.2 0Q108.42 0 107.1 0.07L107.1 0.07 107.1-13.23Q107.1-20.39 102.75-20.39L102.75-20.39Q99.53-20.39 97.36-17.07L97.36-17.07ZM131.48-5.37L131.48-5.37Q134.63-5.37 135.81-7.01L135.81-7.01 136-7.01 136.07-1.34Q134.88-0.15 131.63 0.24L131.63 0.24Q130.75 0.37 129.45 0.37 128.14 0.37 126.61-0.12 125.09-0.61 124.01-1.71L124.01-1.71Q121.79-3.98 121.79-8.81L121.79-8.81 121.79-19.9 118.11-19.9Q118.08-20.61 118.08-21.34L118.08-21.34 118.08-25.1Q118.08-25.51 118.11-25.51L118.11-25.51 121.79-25.51 121.79-32.47 127.77-32.47 127.77-25.51 134.49-25.51 134.49-19.9 127.77-19.9 127.77-9.94Q127.77-6.1 129.9-5.57L129.9-5.57Q130.58-5.37 131.48-5.37ZM160.14-12.82L160.14-32.59Q161.66-32.47 162.66-32.47L162.66-32.47 164.68-32.47Q165.71-32.47 166.83-32.67L166.83-32.67 166.83-12.48Q166.83-6.47 163.2-2.83L163.2-2.83Q159.75 0.61 154.55 0.61L154.55 0.61Q148.86 0.61 145.35-2.34L145.35-2.34Q141.42-5.66 141.42-11.91L141.42-11.91 141.42-32.59Q143.44-32.47 145.24-32.47 147.03-32.47 148.21-32.67L148.21-32.67 148.21-11.6Q148.21-8.52 150.09-6.81L150.09-6.81Q151.84-5.25 154.48-5.25L154.48-5.25Q158.39-5.25 159.68-9.25L159.68-9.25Q160.14-10.69 160.14-12.82L160.14-12.82ZM180.77-0.51L180.77-0.51 180.77 6.67Q180.77 8.76 180.87 9.4L180.87 9.4 174.79 9.4 174.79-25.51 180.77-25.51 180.77-23.93Q183.73-26 186.44-26 189.15-26 191.24-25.24 193.34-24.49 194.93-22.9L194.93-22.9Q198.42-19.46 198.42-13.09L198.42-13.09Q198.42-8.86 196.44-5.54L196.44-5.54Q194.76-2.73 191.78-1.05L191.78-1.05Q189.15 0.44 186.07 0.44 182.99 0.44 180.77-0.51ZM180.77-18.43L180.77-6.67Q182.63-5.1 185.58-5.1L185.58-5.1Q190.41-5.1 191.83-9.77L191.83-9.77Q192.32-11.35 192.32-13.17 192.32-14.99 191.98-16.08 191.64-17.16 191.09-17.96 190.54-18.75 189.85-19.27 189.17-19.8 188.46-20.12L188.46-20.12Q187.22-20.68 185.9-20.68 184.58-20.68 183.16-20.07 181.75-19.46 180.77-18.43L180.77-18.43Z" opacity="1" transform="matrix(1,0,0,1,0,0)" fill="#0b64ba" class="undefined-text-0" data-fill-palette-color="primary" id="text-0"></path></svg></g></svg></g></svg></g></svg></g><g></g></svg></g></svg></g></svg></g><g><path d="M118.599 84.836A122.216 122.216 0 0 1 276.921 84.836L272.172 84.836A117.466 117.466 0 0 0 123.348 84.836L118.599 84.836M118.599 162.364A122.216 122.216 0 0 0 276.921 162.364L272.172 162.364A117.466 117.466 0 0 1 123.348 162.364L118.599 162.364" fill="#0b76e1" stroke="transparent" data-fill-palette-color="tertiary"></path></g></svg></g><defs></defs></svg><rect width="395.52" height="247.2" fill="none" stroke="none" visibility="hidden"></rect></g></svg></g></svg>