<svg xmlns="http://www.w3.org/2000/svg" version="1.1" xmlns:xlink="http://www.w3.org/1999/xlink" xmlns:svgjs="http://svgjs.dev/svgjs" width="128" height="128" viewBox="0 0 128 128"><g transform="matrix(0.8046875,0,0,0.8046875,12.333870967741937,12.333870967741937)"><svg viewBox="0 0 155 155" data-background-color="#ffffff" preserveAspectRatio="xMidYMid meet" height="128" width="128" xmlns="http://www.w3.org/2000/svg" xmlns:xlink="http://www.w3.org/1999/xlink"><g id="tight-bounds" transform="matrix(1,0,0,1,0.25,0.25)"><svg viewBox="0 0 154.5 154.5" height="154.5" width="154.5"><g><svg></svg></g><g><svg viewBox="0 0 154.5 154.5" height="154.5" width="154.5"><g transform="matrix(1,0,0,1,54.6733099826087,47.746371)"><svg viewBox="0 0 45.1533800347826 59.00725799999999" height="59.00725799999999" width="45.1533800347826"><g><svg viewBox="0 0 45.1533800347826 59.00725799999999" height="59.00725799999999" width="45.1533800347826"><g><svg viewBox="0 0 45.1533800347826 59.00725799999999" height="59.00725799999999" width="45.1533800347826"><g><svg viewBox="0 0 45.1533800347826 59.00725799999999" height="59.00725799999999" width="45.1533800347826"><g><svg viewBox="0 0 45.1533800347826 59.00725799999999" height="59.00725799999999" width="45.1533800347826"><g transform="matrix(1,0,0,1,0,0)"><svg width="45.1533800347826" viewBox="1.27 -33.08 25.779999999999998 33.69" height="59.00725799999999" data-palette-color="#0b64ba"><path d="M18.75-33.08L18.75-33.08Q23.32-33.08 26.54-31.49L26.54-31.49 26.54-24.02 26.49-23.97Q25.12-26.07 20.73-26.76L20.73-26.76Q19.43-26.98 17.46-26.98 15.48-26.98 13.57-26.23 11.67-25.49 10.45-24.12L10.45-24.12Q8.08-21.46 8.08-16.53L8.08-16.53Q8.08-10.79 11.08-7.98L11.08-7.98Q13.57-5.64 17.68-5.64L17.68-5.64Q22.31-5.64 25.2-7.62L25.2-7.62Q26.25-8.33 26.98-9.38L26.98-9.38 27.05-9.33 27.05-2.49Q23.32 0.61 16.99 0.61L16.99 0.61Q9.55 0.61 5.32-4.13L5.32-4.13Q1.27-8.64 1.27-16.09L1.27-16.09Q1.27-23.97 5.71-28.52L5.71-28.52Q10.21-33.08 18.75-33.08Z" opacity="1" transform="matrix(1,0,0,1,0,0)" fill="#000000" class="undefined-text-0" data-fill-palette-color="primary" id="text-0"></path></svg></g></svg></g></svg></g></svg></g><g></g></svg></g></svg></g><g><path d="M50.243 33.816A22.577 22.577 0 0 1 104.257 33.816L98.935 33.816A17.255 17.255 0 0 0 55.565 33.816L50.243 33.816M50.243 120.684A22.577 22.577 0 0 0 104.257 120.684L98.935 120.684A17.255 17.255 0 0 1 55.565 120.684L50.243 120.684" fill="#000000" stroke="transparent" data-fill-palette-color="tertiary"></path></g></svg></g><defs></defs></svg><rect width="154.5" height="154.5" fill="none" stroke="none" visibility="hidden"></rect></g></svg></g></svg>